<svg xmlns="http://www.w3.org/2000/svg" viewBox="0 0 200.00 200.00" data-guides="{&quot;vertical&quot;:[],&quot;horizontal&quot;:[]}"><defs/><path fill="#000000" stroke="none" fill-opacity="1" stroke-width="1" stroke-opacity="1" id="tSvg161fa47e1c2" title="Ellipse 1" d="M100.3752 -0.0002C155.3965 -0.0002 200.0002 44.7154 200.0002 99.8748C200.0002 155.0343 155.3965 199.7498 100.3752 199.7498C45.3538 199.7498 0.7502 155.0343 0.7502 99.8748C0.7502 44.7154 45.3538 -0.0002 100.3752 -0.0002Z" style="transform-origin: -12494.5px -7322.5px;"/><path fill="#ffffff" stroke="none" fill-opacity="1" stroke-width="1" stroke-opacity="1" id="tSvg18e33f68ff9" title="Path 1" d="M147.3017 52.7C146.5026 51.8997 145.5546 51.5001 144.4601 51.5001C135.0293 51.5001 125.5986 51.5001 116.1678 51.5001C115.0733 51.5001 114.1269 51.9002 113.3262 52.7C112.5271 53.5002 112.1271 54.4471 112.1271 55.5416C112.1271 56.6361 112.5271 57.584 113.3262 58.3832C116.3572 61.4145 119.3883 64.4457 122.4193 67.477C115.4304 74.4657 108.4416 81.4546 101.4528 88.4433C101.0318 88.8653 100.821 89.3487 100.821 89.8959C100.821 90.4431 101.0318 90.9276 101.4528 91.3485C103.8526 93.7483 106.2524 96.1481 108.6522 98.5479C109.0731 98.9691 109.5567 99.1793 110.1048 99.1793C110.652 99.1793 111.1357 98.9691 111.5566 98.5479C118.5457 91.5591 125.5348 84.5704 132.5239 77.5815C135.5546 80.6125 138.5854 83.6435 141.6162 86.6746C142.4169 87.4748 143.3648 87.8752 144.4593 87.8752C145.5538 87.8752 146.501 87.4742 147.3009 86.6746C148.1001 85.8751 148.5001 84.9274 148.5001 83.8329C148.5001 74.4022 148.5001 64.9715 148.5001 55.5408C148.5008 54.4456 148.1032 53.4999 147.3017 52.7ZM91.3497 101.4515C90.9288 101.0303 90.4444 100.8202 89.8971 100.8202C89.3499 100.8202 88.8653 101.0303 88.4446 101.4515C81.4556 108.4403 74.4668 115.4292 67.478 122.4179C64.4467 119.3864 61.4154 116.3548 58.3842 113.3234C57.5842 112.5247 56.6377 112.1241 55.5426 112.1241C54.4473 112.1241 53.5 112.5252 52.7001 113.3234C51.9002 114.1236 51.5002 115.072 51.5002 116.1665C51.5002 125.5972 51.5002 135.0279 51.5002 144.4585C51.5002 145.553 51.9001 146.5002 52.7001 147.3001C53.5009 148.0996 54.4481 148.5001 55.5426 148.5001C64.9733 148.5001 74.404 148.5001 83.8348 148.5001C84.9292 148.5001 85.8765 148.0991 86.6764 147.3001C87.4764 146.4999 87.8763 145.553 87.8763 144.4585C87.8763 143.364 87.4764 142.4161 86.6764 141.6154C83.6452 138.5847 80.6139 135.5539 77.5826 132.5232C84.5714 125.5342 91.5603 118.5451 98.5491 111.556C98.97 111.1349 99.1801 110.6515 99.1801 110.1034C99.1801 109.5562 98.9692 109.0726 98.5491 108.6508C96.1493 106.2511 93.7495 103.8513 91.3497 101.4515Z" style=""/></svg>